<svg xmlns="http://www.w3.org/2000/svg" width="68.586" height="71.974" viewBox="0 0 68.586 71.974"><defs><style>.a,.b{fill:none;stroke:#7150e7;stroke-linecap:round;stroke-width:5px;}.a{stroke-linejoin:round;}</style></defs><g transform="translate(-630.561 -1174.352)"><path class="a" d="M-2887.2-539.38l-5.73-24.729s-.51-4.095-3.846-3.971c-7.48-.233-22.239.328-22.239.328s-4.38-.233-3.876,3.643,3.983,31.564,15.107,33.114c1.442.2,14.671,1.226,17.995,1.171,7.007-.115,13.641-.721,13.641-.721,3.473-.235,6.271.153,8.8,4.147,3.6,5.7,7.54,24.769,7.54,24.769" transform="translate(3556 1745)"/><path class="a" d="M-2805.447-438.044s3.17-.89,5.437,8.162,4.614,19.908,4.614,19.908" transform="translate(3473.093 1653.21)"/><path class="b" d="M-2892.123-449.31l-2.429,31.4" transform="translate(3535.974 1661.143)"/></g></svg>