<svg xmlns="http://www.w3.org/2000/svg" width="113" height="37" viewBox="0 0 113 37">
  <g id="그룹_18559" data-name="그룹 18559" transform="translate(-77 -487)">
    <g id="패스_7714" data-name="패스 7714" transform="translate(77 487)" fill="none">
      <path d="M18.5,0h76a18.5,18.5,0,0,1,0,37h-76a18.5,18.5,0,0,1,0-37Z" stroke="none"/>
      <path d="M 18.5 1 C 13.82558441162109 1 9.430938720703125 2.820323944091797 6.125633239746094 6.125631332397461 C 2.820320129394531 9.430953979492188 1 13.82558441162109 1 18.5 C 1 23.17441558837891 2.820320129394531 27.56904602050781 6.125633239746094 30.87436866760254 C 9.430938720703125 34.1796760559082 13.82558441162109 36 18.5 36 L 94.5 36 C 99.17441558837891 36 103.5690460205078 34.1796760559082 106.8743667602539 30.87436866760254 C 110.1796798706055 27.56904602050781 112 23.17441558837891 112 18.5 C 112 13.82558441162109 110.1796798706055 9.430953979492188 106.8743667602539 6.125631332397461 C 103.5690460205078 2.820323944091797 99.17441558837891 1 94.5 1 L 18.5 1 M 18.5 0 L 94.5 0 C 104.7172622680664 0 113 8.282737731933594 113 18.5 C 113 28.71726226806641 104.7172622680664 37 94.5 37 L 18.5 37 C 8.282722473144531 37 0 28.71726226806641 0 18.5 C 0 8.282737731933594 8.282722473144531 0 18.5 0 Z" stroke="none" fill="#7150e7"/>
    </g>
    <text id="취소" transform="translate(118 511)" fill="#7150e7" font-size="18" font-family="AppleSDGothicNeoM00"><tspan x="0" y="0">취소</tspan></text>
  </g>
</svg>
