<svg xmlns="http://www.w3.org/2000/svg" width="14" height="14" viewBox="0 0 14 14"><defs><style>.a,.b{fill:#7150e7;}.b{stroke:#fff;stroke-linecap:round;stroke-linejoin:round;}.c,.d{stroke:none;}.d{fill:#7150e7;}</style></defs><g transform="translate(-283 -364.351)"><g class="a" transform="translate(283 364.351)"><path class="c" d="M 7 13.5 C 3.415889978408813 13.5 0.5 10.58411026000977 0.5 7 C 0.5 3.415889978408813 3.415889978408813 0.5 7 0.5 C 10.58411026000977 0.5 13.5 3.415889978408813 13.5 7 C 13.5 8.981080055236816 12.61608982086182 10.76809978485107 10.94382953643799 12.16786956787109 C 9.977350234985352 12.99057960510254 8.467379570007324 13.5 7 13.5 Z"/><path class="d" d="M 7 1 C 3.691590309143066 1 1 3.691590309143066 1 7 C 1 10.30840969085693 3.691590309143066 13 7 13 C 8.353879928588867 13 9.739660263061523 12.53629016876221 10.61655044555664 11.78981971740723 L 10.61970996856689 11.78713035583496 L 10.62289047241211 11.78446006774902 C 12.17800998687744 10.48274993896484 13 8.828310012817383 13 7 C 13 3.691590309143066 10.30840969085693 1 7 1 M 7 0 C 10.86598968505859 0 14 3.134010314941406 14 7 C 14 9.149490356445313 13.03116989135742 11.07270050048828 11.26476001739502 12.55128002166748 C 10.28870010375977 13.38216972351074 8.716499328613281 14 7 14 C 3.134010314941406 14 0 10.86598968505859 0 7 C 0 3.134010314941406 3.134010314941406 0 7 0 Z"/></g><path class="b" d="M50.253,497.737l2.118,3.4,3.24-5.812" transform="translate(237.068 -126.879)"/></g></svg>