<svg xmlns="http://www.w3.org/2000/svg" width="27.268" height="27.268" viewBox="0 0 27.268 27.268">
    <path fill="#fff" d="M13.634.563A13.634 13.634 0 1 0 27.268 14.2 13.632 13.632 0 0 0 13.634.563zm0 5.278A4.838 4.838 0 1 1 8.8 10.678a4.838 4.838 0 0 1 4.834-4.838zm0 18.912A10.535 10.535 0 0 1 5.58 21 6.129 6.129 0 0 1 11 17.715a1.345 1.345 0 0 1 .39.06 7.279 7.279 0 0 0 2.249.379 7.251 7.251 0 0 0 2.249-.379 1.345 1.345 0 0 1 .39-.06A6.129 6.129 0 0 1 21.688 21a10.535 10.535 0 0 1-8.054 3.752z" transform="translate(0 -.563)"/>
</svg>
