<svg xmlns="http://www.w3.org/2000/svg" width="51.02" height="53.462" viewBox="0 0 51.02 53.462">
    <defs>
        <style>
            .cls-1{fill:none;stroke:#7150e7;stroke-linecap:round;stroke-width:5px;stroke-linejoin:round}
        </style>
    </defs>
    <g id="그룹_18483" transform="translate(-630.561 -1174.355)">
        <path id="패스_7694" d="M-2896.58-549.207l-4.7-16.023s-.369-2.955-2.776-2.866c-5.4-.168-16.05.236-16.05.236s-3.161-.168-2.8 2.63 2.875 22.78 10.9 23.9c1.041.145 10.588.885 12.987.845 5.057-.083 9.845-.52 9.845-.52 2.506-.169 4.526.111 6.35 2.993 2.6 4.112 5.442 17.876 5.442 17.876" class="cls-1" transform="translate(3555.999 1745)"/>
        <path id="패스_7695" d="M-2805.447-438.05s2.288-.642 3.924 5.89 3.33 14.368 3.33 14.368" class="cls-1" transform="translate(3463.472 1642.557)"/>
        <path id="패스_7696" fill="none" stroke="#7150e7" stroke-linecap="round" stroke-width="5px" d="M-2892.8-449.31l-1.753 22.663" transform="translate(3533.651 1651.411)"/>
    </g>
</svg>
