<svg xmlns="http://www.w3.org/2000/svg" width="14" height="14" viewBox="0 0 14 14"><defs><style>.a,.b{fill:none;}.b{stroke:#7150e7;stroke-linecap:round;stroke-linejoin:round;}.c,.d{stroke:none;}.d{fill:#7150e7;}</style></defs><g transform="translate(-283 -364.351)"><g class="a" transform="translate(283 364.351)"><path class="c" d="M7,0a7,7,0,0,1,7,7,7.137,7.137,0,0,1-2.735,5.551A6.758,6.758,0,0,1,7,14,7,7,0,0,1,7,0Z"/><path class="d" d="M 7 1 C 3.691590309143066 1 1 3.691590309143066 1 7 C 1 10.30840969085693 3.691590309143066 13 7 13 C 8.353879928588867 13 9.739660263061523 12.53629016876221 10.61655044555664 11.78981971740723 L 10.61970996856689 11.78713035583496 L 10.62289047241211 11.78446006774902 C 12.17800998687744 10.48274993896484 13 8.828310012817383 13 7 C 13 3.691590309143066 10.30840969085693 1 7 1 M 7 0 C 10.86598968505859 0 14 3.134010314941406 14 7 C 14 9.149490356445313 13.03116989135742 11.07270050048828 11.26476001739502 12.55128002166748 C 10.28870010375977 13.38216972351074 8.716499328613281 14 7 14 C 3.134010314941406 14 0 10.86598968505859 0 7 C 0 3.134010314941406 3.134010314941406 0 7 0 Z"/></g><path class="b" d="M50.253,497.737l2.118,3.4,3.24-5.812" transform="translate(237.068 -126.879)"/></g></svg>